<mxfile host="app.diagrams.net" agent="Mozilla/5.0 (X11; Linux x86_64; rv:143.0) Gecko/20100101 Firefox/143.0" version="28.2.3">
  <diagram name="Page-1" id="O6YjbQR5DHtCD_LOkvAT">
    <mxGraphModel dx="1580" dy="719" grid="1" gridSize="10" guides="1" tooltips="1" connect="1" arrows="1" fold="1" page="0" pageScale="1" pageWidth="850" pageHeight="1100" math="0" shadow="0">
      <root>
        <mxCell id="0" />
        <mxCell id="1" parent="0" />
        <mxCell id="3lJdUf8xkJvG2lfuBM1Q-6" value="" style="edgeStyle=orthogonalEdgeStyle;rounded=0;orthogonalLoop=1;jettySize=auto;html=1;" edge="1" parent="1" source="3lJdUf8xkJvG2lfuBM1Q-4" target="3lJdUf8xkJvG2lfuBM1Q-5">
          <mxGeometry relative="1" as="geometry" />
        </mxCell>
        <mxCell id="3lJdUf8xkJvG2lfuBM1Q-4" value="Common-Ground/onboarding" style="text;strokeColor=none;align=center;fillColor=none;html=1;verticalAlign=middle;whiteSpace=wrap;rounded=0;" vertex="1" parent="1">
          <mxGeometry x="335" y="170" width="150" height="30" as="geometry" />
        </mxCell>
        <mxCell id="3lJdUf8xkJvG2lfuBM1Q-9" style="edgeStyle=orthogonalEdgeStyle;rounded=0;orthogonalLoop=1;jettySize=auto;html=1;" edge="1" parent="1" source="3lJdUf8xkJvG2lfuBM1Q-5" target="3lJdUf8xkJvG2lfuBM1Q-7">
          <mxGeometry relative="1" as="geometry" />
        </mxCell>
        <mxCell id="3lJdUf8xkJvG2lfuBM1Q-11" value="" style="edgeStyle=orthogonalEdgeStyle;rounded=0;orthogonalLoop=1;jettySize=auto;html=1;" edge="1" parent="1" source="3lJdUf8xkJvG2lfuBM1Q-5" target="3lJdUf8xkJvG2lfuBM1Q-12">
          <mxGeometry relative="1" as="geometry">
            <mxPoint x="600" y="355" as="targetPoint" />
          </mxGeometry>
        </mxCell>
        <mxCell id="3lJdUf8xkJvG2lfuBM1Q-5" value="&lt;div&gt;Already an&lt;/div&gt;&lt;div&gt;user?&lt;/div&gt;" style="rhombus;whiteSpace=wrap;html=1;" vertex="1" parent="1">
          <mxGeometry x="355" y="310" width="110" height="90" as="geometry" />
        </mxCell>
        <mxCell id="3lJdUf8xkJvG2lfuBM1Q-10" value="log in" style="edgeStyle=orthogonalEdgeStyle;rounded=0;orthogonalLoop=1;jettySize=auto;html=1;entryX=0.5;entryY=0;entryDx=0;entryDy=0;" edge="1" parent="1" source="3lJdUf8xkJvG2lfuBM1Q-7" target="3lJdUf8xkJvG2lfuBM1Q-16">
          <mxGeometry relative="1" as="geometry">
            <mxPoint x="130" y="450" as="targetPoint" />
            <Array as="points">
              <mxPoint x="130" y="355" />
            </Array>
          </mxGeometry>
        </mxCell>
        <mxCell id="3lJdUf8xkJvG2lfuBM1Q-7" value="Yes" style="text;strokeColor=none;align=center;fillColor=none;html=1;verticalAlign=middle;whiteSpace=wrap;rounded=0;" vertex="1" parent="1">
          <mxGeometry x="170" y="340" width="60" height="30" as="geometry" />
        </mxCell>
        <mxCell id="3lJdUf8xkJvG2lfuBM1Q-13" value="Sign Up" style="edgeStyle=orthogonalEdgeStyle;rounded=0;orthogonalLoop=1;jettySize=auto;html=1;entryX=0.5;entryY=0;entryDx=0;entryDy=0;" edge="1" parent="1" source="3lJdUf8xkJvG2lfuBM1Q-12" target="3lJdUf8xkJvG2lfuBM1Q-17">
          <mxGeometry relative="1" as="geometry">
            <mxPoint x="710" y="450" as="targetPoint" />
            <Array as="points">
              <mxPoint x="710" y="355" />
            </Array>
          </mxGeometry>
        </mxCell>
        <mxCell id="3lJdUf8xkJvG2lfuBM1Q-12" value="No" style="text;strokeColor=none;align=center;fillColor=none;html=1;verticalAlign=middle;whiteSpace=wrap;rounded=0;" vertex="1" parent="1">
          <mxGeometry x="600" y="340" width="60" height="30" as="geometry" />
        </mxCell>
        <mxCell id="3lJdUf8xkJvG2lfuBM1Q-19" value="" style="edgeStyle=orthogonalEdgeStyle;rounded=0;orthogonalLoop=1;jettySize=auto;html=1;" edge="1" parent="1" source="3lJdUf8xkJvG2lfuBM1Q-16" target="3lJdUf8xkJvG2lfuBM1Q-18">
          <mxGeometry relative="1" as="geometry" />
        </mxCell>
        <mxCell id="3lJdUf8xkJvG2lfuBM1Q-16" value="&lt;div&gt;user.controller.js&lt;/div&gt;&lt;div&gt;&lt;br&gt;&lt;/div&gt;&lt;div&gt;username : string&lt;/div&gt;&lt;div&gt;&lt;br&gt;&lt;/div&gt;&lt;div&gt;password : string&lt;/div&gt;" style="rounded=1;whiteSpace=wrap;html=1;" vertex="1" parent="1">
          <mxGeometry x="40" y="460" width="170" height="160" as="geometry" />
        </mxCell>
        <mxCell id="3lJdUf8xkJvG2lfuBM1Q-30" style="edgeStyle=orthogonalEdgeStyle;rounded=0;orthogonalLoop=1;jettySize=auto;html=1;" edge="1" parent="1" source="3lJdUf8xkJvG2lfuBM1Q-17" target="3lJdUf8xkJvG2lfuBM1Q-29">
          <mxGeometry relative="1" as="geometry" />
        </mxCell>
        <mxCell id="3lJdUf8xkJvG2lfuBM1Q-17" value="&lt;div&gt;user.controller.js&lt;/div&gt;&lt;div&gt;&lt;br&gt;&lt;/div&gt;&lt;div&gt;name : string&lt;/div&gt;&lt;div&gt;email : string&lt;/div&gt;&lt;div&gt;password : string&lt;/div&gt;&lt;div&gt;phone_number : number&lt;/div&gt;&lt;div&gt;ZIP_code : string&lt;/div&gt;&lt;div&gt;skills : string[]&lt;/div&gt;&lt;div&gt;interests : string[]&lt;/div&gt;&lt;div&gt;&lt;br&gt;&lt;/div&gt;" style="rounded=1;whiteSpace=wrap;html=1;" vertex="1" parent="1">
          <mxGeometry x="620" y="470" width="180" height="150" as="geometry" />
        </mxCell>
        <mxCell id="3lJdUf8xkJvG2lfuBM1Q-25" value="Yes" style="edgeStyle=orthogonalEdgeStyle;rounded=0;orthogonalLoop=1;jettySize=auto;html=1;" edge="1" parent="1" source="3lJdUf8xkJvG2lfuBM1Q-18" target="3lJdUf8xkJvG2lfuBM1Q-24">
          <mxGeometry x="-0.4497" relative="1" as="geometry">
            <mxPoint as="offset" />
          </mxGeometry>
        </mxCell>
        <mxCell id="3lJdUf8xkJvG2lfuBM1Q-27" value="no" style="edgeStyle=orthogonalEdgeStyle;rounded=0;orthogonalLoop=1;jettySize=auto;html=1;" edge="1" parent="1" source="3lJdUf8xkJvG2lfuBM1Q-18" target="3lJdUf8xkJvG2lfuBM1Q-26">
          <mxGeometry relative="1" as="geometry" />
        </mxCell>
        <mxCell id="3lJdUf8xkJvG2lfuBM1Q-18" value="&lt;div&gt;userCheck&lt;/div&gt;&lt;div&gt;&amp;nbsp;isUser?&lt;/div&gt;" style="rhombus;whiteSpace=wrap;html=1;rounded=1;" vertex="1" parent="1">
          <mxGeometry x="52.5" y="740" width="145" height="80" as="geometry" />
        </mxCell>
        <mxCell id="3lJdUf8xkJvG2lfuBM1Q-34" style="edgeStyle=orthogonalEdgeStyle;rounded=0;orthogonalLoop=1;jettySize=auto;html=1;" edge="1" parent="1" source="3lJdUf8xkJvG2lfuBM1Q-24" target="3lJdUf8xkJvG2lfuBM1Q-35">
          <mxGeometry relative="1" as="geometry">
            <mxPoint x="-90" y="1040" as="targetPoint" />
          </mxGeometry>
        </mxCell>
        <mxCell id="3lJdUf8xkJvG2lfuBM1Q-24" value="MAIN APPLICATION" style="whiteSpace=wrap;html=1;rounded=1;" vertex="1" parent="1">
          <mxGeometry x="260" y="940" width="300" height="60" as="geometry" />
        </mxCell>
        <mxCell id="3lJdUf8xkJvG2lfuBM1Q-26" value="Alert to return to the signup Page" style="rounded=1;whiteSpace=wrap;html=1;" vertex="1" parent="1">
          <mxGeometry x="-160" y="750" width="120" height="60" as="geometry" />
        </mxCell>
        <mxCell id="3lJdUf8xkJvG2lfuBM1Q-31" value="NO" style="edgeStyle=orthogonalEdgeStyle;rounded=0;orthogonalLoop=1;jettySize=auto;html=1;entryX=0.5;entryY=0;entryDx=0;entryDy=0;" edge="1" parent="1" source="3lJdUf8xkJvG2lfuBM1Q-29" target="3lJdUf8xkJvG2lfuBM1Q-24">
          <mxGeometry x="-0.3435" relative="1" as="geometry">
            <mxPoint as="offset" />
          </mxGeometry>
        </mxCell>
        <mxCell id="3lJdUf8xkJvG2lfuBM1Q-33" value="Yes" style="edgeStyle=orthogonalEdgeStyle;rounded=0;orthogonalLoop=1;jettySize=auto;html=1;" edge="1" parent="1" source="3lJdUf8xkJvG2lfuBM1Q-29" target="3lJdUf8xkJvG2lfuBM1Q-32">
          <mxGeometry relative="1" as="geometry" />
        </mxCell>
        <mxCell id="3lJdUf8xkJvG2lfuBM1Q-29" value="&lt;div&gt;userCheck&lt;/div&gt;&lt;div&gt;&amp;nbsp;isUser?&lt;/div&gt;" style="rhombus;whiteSpace=wrap;html=1;rounded=1;" vertex="1" parent="1">
          <mxGeometry x="637.5" y="740" width="145" height="80" as="geometry" />
        </mxCell>
        <mxCell id="3lJdUf8xkJvG2lfuBM1Q-32" value="Return an Alert to login Instead" style="whiteSpace=wrap;html=1;rounded=1;" vertex="1" parent="1">
          <mxGeometry x="875" y="750" width="120" height="60" as="geometry" />
        </mxCell>
        <mxCell id="3lJdUf8xkJvG2lfuBM1Q-35" value="&lt;div&gt;domain/myprofile&lt;/div&gt;&lt;div&gt;&lt;br&gt;&lt;/div&gt;&lt;div&gt;&lt;br&gt;&lt;/div&gt;" style="rounded=1;whiteSpace=wrap;html=1;" vertex="1" parent="1">
          <mxGeometry x="-160" y="1030" width="150" height="190" as="geometry" />
        </mxCell>
      </root>
    </mxGraphModel>
  </diagram>
</mxfile>
